<svg width="14" height="12" viewBox="0 0 14 12" fill="none" xmlns="http://www.w3.org/2000/svg">
<path d="M4.99508 6.28222C5.00121 5.60901 5.18206 4.94893 5.51993 4.3666C5.8578 3.78428 6.3411 3.29969 6.92251 2.96027C7.03823 2.86883 7.17567 2.80892 7.32143 2.78639C7.46718 2.76386 7.61628 2.77947 7.75421 2.8317C7.89214 2.88394 8.01417 2.97102 8.10844 3.08444C8.20271 3.19787 8.26601 3.33377 8.29213 3.47893C8.43443 3.89658 8.6066 4.30428 8.74463 4.72335C8.78143 4.84915 8.85082 4.96297 8.94578 5.0533C9.04075 5.14364 9.1579 5.20728 9.28538 5.23776C9.70801 5.35942 10.1306 5.47967 10.5511 5.60631C10.6064 5.61675 10.659 5.63812 10.7059 5.66915C10.7528 5.70019 10.793 5.74027 10.8242 5.78705C10.8554 5.83384 10.877 5.88637 10.8877 5.94159C10.8983 5.99681 10.8978 6.0536 10.8862 6.10863C10.8798 6.16801 10.8607 6.22533 10.8303 6.27671C10.7998 6.32808 10.7587 6.37232 10.7096 6.40644C10.6606 6.44057 10.6048 6.46378 10.546 6.47451C10.4873 6.48524 10.4269 6.48325 10.369 6.46865C9.94565 6.4096 9.52373 6.34342 9.10394 6.26231C8.78918 6.21514 8.4907 6.09175 8.23451 5.90289C7.97831 5.71404 7.77218 5.46542 7.63401 5.1787C7.56286 5.0364 7.47604 4.90051 7.38283 4.73829C7.05563 5.05713 6.83582 5.46992 6.75389 5.91937C6.70195 6.12571 6.75386 6.22388 6.95877 6.29432C7.56781 6.50279 8.17259 6.72549 8.77451 6.95459C8.8944 6.9834 9.00512 7.04195 9.09643 7.12482C9.18774 7.20769 9.25671 7.31222 9.29697 7.42876C9.33724 7.54531 9.34748 7.67012 9.32681 7.79168C9.30613 7.91323 9.25517 8.02762 9.17864 8.1243C8.87696 8.62235 8.55397 9.10758 8.23451 9.59495C8.00825 9.94003 8.00398 9.93718 8.23451 10.2872C8.24874 10.3086 8.27363 10.3306 8.27363 10.352C8.27363 10.4665 8.30848 10.6174 8.25014 10.6857C8.20722 10.728 8.15508 10.7598 8.0978 10.7786C8.04052 10.7973 7.97966 10.8025 7.92001 10.7938C7.61301 10.7069 7.31251 10.5985 7.0207 10.4694C6.96394 10.4509 6.91208 10.4198 6.86892 10.3786C6.82577 10.3373 6.79243 10.2869 6.77139 10.231C6.75035 10.1751 6.74215 10.1152 6.74737 10.0557C6.7526 9.99627 6.77112 9.93874 6.80157 9.88738C7.02498 9.34997 7.24906 8.81256 7.4739 8.27514C7.49239 8.23032 7.50593 8.18406 7.52514 8.13283C7.04915 7.99053 6.58385 7.8525 6.12351 7.70593C5.92091 7.6497 5.72575 7.56944 5.54221 7.46687C5.3486 7.34108 5.19451 7.16311 5.0977 6.95351C5.00089 6.7439 4.96532 6.51118 4.99508 6.28222Z" fill="#EA1D2C"/>
<path d="M3.90118 6.92723C3.48638 6.93221 3.07086 6.92297 2.65606 6.93151C2.48415 6.93523 2.31302 6.95597 2.14519 6.99341C1.79242 7.06794 1.46716 7.23867 1.20545 7.48669C0.94374 7.73471 0.755804 8.05035 0.662448 8.39862L0.513062 8.84615L0.42343 8.83547C0.291525 8.52822 0.242511 8.19174 0.28134 7.85964C0.320168 7.52753 0.445419 7.21142 0.644644 6.94289C0.244783 6.8568 0.0463098 6.66826 0.0391948 6.34382C0.0202216 5.50473 0.00744665 4.6654 0.000806019 3.82584C-0.00339611 3.74691 0.00886382 3.66797 0.0368498 3.59405C0.0648358 3.52013 0.107886 3.45284 0.163307 3.39648C0.218728 3.34012 0.285283 3.29592 0.358725 3.2667C0.432167 3.23748 0.51085 3.22387 0.58984 3.22675C1.46451 3.21869 2.33925 3.21869 3.21391 3.22675C3.38578 3.22668 3.55183 3.28882 3.68144 3.40169C3.81105 3.51456 3.89544 3.67053 3.91898 3.84078C4.07836 4.66991 4.23557 5.49998 4.39068 6.33101C4.41172 6.40396 4.41469 6.48093 4.39936 6.55529C4.38404 6.62964 4.35087 6.69915 4.3027 6.75783C4.25452 6.8165 4.19278 6.86259 4.12283 6.8921C4.05288 6.92161 3.97683 6.93367 3.90118 6.92723Z" fill="#EA1D2C"/>
<path d="M10.7331 7.7175C10.8648 7.65133 10.9181 7.588 10.8619 7.44072C10.8219 7.32484 10.7914 7.20585 10.7709 7.08498C10.7324 6.89572 10.7965 6.76623 10.9388 6.72923C11.0946 6.68725 11.2184 6.77264 11.2703 6.96332C11.3173 7.13479 11.3592 7.30839 11.4076 7.49978C11.5806 7.49014 11.7541 7.49014 11.927 7.49978C12.3552 7.5527 12.7569 7.73541 13.0782 8.02337C13.3995 8.31134 13.625 8.69075 13.7243 9.11062C13.8227 9.53138 13.7906 9.97215 13.6323 10.3742C13.4739 10.7763 13.1967 11.1205 12.8377 11.3611C12.4786 11.5985 12.0555 11.7204 11.6251 11.7103C11.1947 11.7003 10.7777 11.5588 10.4301 11.3049C10.1401 11.0902 9.90981 10.8049 9.76116 10.4762C9.61252 10.1474 9.55044 9.78614 9.58081 9.42663C9.61119 9.06712 9.733 8.72135 9.93469 8.4222C10.1364 8.12305 10.4112 7.88046 10.7331 7.7175ZM10.4891 10.0441C10.5996 10.3398 10.8162 10.5838 11.0967 10.7285C11.3773 10.8732 11.7017 10.9082 12.0067 10.8267C12.3186 10.7401 12.5859 10.5381 12.7544 10.2617C12.9228 9.98532 12.9799 9.65518 12.9139 9.33828C12.8539 9.04356 12.6888 8.78071 12.4494 8.59864C12.21 8.41657 11.9126 8.3277 11.6126 8.34859C11.6688 8.56631 11.7193 8.78047 11.7833 8.98893C11.794 9.02522 11.8545 9.05013 11.9 9.0729C11.9739 9.10469 12.0402 9.15179 12.0946 9.21108C12.149 9.27038 12.1901 9.34053 12.2154 9.4169C12.2407 9.49327 12.2495 9.57414 12.2412 9.65416C12.233 9.73418 12.2078 9.81154 12.1675 9.88115C12.1292 9.94766 12.0779 10.0058 12.0166 10.0519C11.9553 10.0981 11.8853 10.1314 11.8108 10.1498C11.7362 10.1682 11.6588 10.1713 11.583 10.1591C11.5073 10.1468 11.4348 10.1193 11.3699 10.0782C11.303 10.0341 11.246 9.9765 11.2024 9.90918C11.1588 9.84186 11.1297 9.76626 11.1168 9.68712C11.1039 9.60798 11.1075 9.52701 11.1274 9.44934C11.1474 9.37167 11.1832 9.29898 11.2326 9.23583C11.2693 9.17475 11.2831 9.10266 11.2717 9.03234C11.2369 8.84522 11.1828 8.66237 11.1294 8.46315C10.8446 8.59919 10.621 8.83683 10.5025 9.12938C10.384 9.42192 10.3793 9.74819 10.4891 10.0441Z" fill="#EA1D2C"/>
<path d="M3.12252 7.49334C3.39984 7.48974 3.67508 7.54149 3.93216 7.64557C4.18924 7.74965 4.42297 7.90397 4.61968 8.09948C4.81639 8.295 4.97219 8.52779 5.07783 8.78423C5.18347 9.04067 5.23686 9.31561 5.23494 9.59296C5.23739 9.87016 5.18496 10.1451 5.08069 10.402C4.97643 10.6588 4.82237 10.8925 4.62741 11.0896C4.43245 11.2867 4.20047 11.4432 3.94475 11.5502C3.68903 11.6573 3.41467 11.7127 3.13746 11.7132C2.86018 11.7136 2.58562 11.6591 2.32947 11.553C2.07332 11.4469 1.84063 11.2911 1.6449 11.0947C1.44916 10.8983 1.29421 10.6651 1.18892 10.4086C1.08364 10.1521 1.03014 9.87735 1.03146 9.60008C1.03013 9.04364 1.24952 8.50937 1.64151 8.11444C2.0335 7.71952 2.56608 7.49616 3.12252 7.49334ZM3.13815 10.8715C3.47399 10.8678 3.79498 10.7323 4.03186 10.4942C4.26875 10.2561 4.4026 9.9345 4.40463 9.59864C4.40221 9.26219 4.26744 8.9402 4.02952 8.70228C3.7916 8.46436 3.46966 8.32963 3.1332 8.32721C2.96683 8.32785 2.80221 8.36146 2.64891 8.42611C2.49561 8.49077 2.35668 8.58519 2.2401 8.70389C2.12351 8.82259 2.03161 8.96322 1.96972 9.11766C1.90784 9.27209 1.87722 9.43726 1.87957 9.60362C1.8773 9.76979 1.90813 9.93476 1.97033 10.0889C2.03253 10.243 2.12485 10.3831 2.24183 10.5012C2.35881 10.6192 2.49806 10.7128 2.6516 10.7763C2.80514 10.8399 2.96988 10.8723 3.13607 10.8715H3.13815Z" fill="#EA1D2C"/>
<path d="M10.5122 1.72884C10.0947 1.64859 9.68249 1.54334 9.27769 1.41366C9.01159 1.33468 8.8693 1.41864 8.90701 1.69328C8.94706 1.92632 8.99906 2.15714 9.06282 2.38484C9.0799 2.47362 9.12201 2.55571 9.18415 2.62138C9.24629 2.68705 9.32591 2.73361 9.41362 2.75557C9.77577 2.85233 10.1386 2.94625 10.5043 3.02807C10.6751 3.06578 10.7178 3.12341 10.6089 3.26713C10.5413 3.37385 10.4416 3.45642 10.3241 3.50307C10.2067 3.54971 10.0775 3.55802 9.95506 3.52682C9.50923 3.42188 9.07149 3.28515 8.64519 3.1177C8.3653 2.99982 8.12923 2.79747 7.96991 2.53892C7.81059 2.28036 7.73597 1.97852 7.75651 1.67552C7.78764 1.50009 7.83407 1.32772 7.89526 1.16039C8.01272 0.88549 8.21281 0.653932 8.46779 0.497882C8.72278 0.341833 9.02001 0.269027 9.31825 0.289523C9.6392 0.306866 9.94793 0.418315 10.2059 0.610009C10.4639 0.801703 10.6598 1.06512 10.769 1.36741C10.875 1.6577 10.8103 1.77651 10.5122 1.72884Z" fill="#EA1D2C"/>
<path d="M12.436 7.05005C12.2584 7.00192 12.087 6.93338 11.9252 6.84584C11.7909 6.77583 11.6788 6.66991 11.6013 6.53988C11.5238 6.40984 11.4839 6.26081 11.4862 6.10944C11.4847 5.88066 11.5539 5.65702 11.6845 5.46914C11.8151 5.28126 12.0005 5.13836 12.2154 5.06C12.2631 5.02299 12.3186 4.99748 12.3777 4.98544C12.4368 4.9734 12.4979 4.97514 12.5562 4.99056C12.6145 5.00598 12.6685 5.03465 12.7139 5.07433C12.7593 5.11401 12.795 5.16366 12.8181 5.21937C13.0062 5.52447 13.097 5.87958 13.0785 6.23752C13.0375 6.43905 12.9828 6.63753 12.9149 6.83162C12.9021 6.88038 12.8787 6.92569 12.8462 6.96426C12.8138 7.00284 12.7732 7.03369 12.7273 7.05461C12.6815 7.07553 12.6316 7.08597 12.5812 7.08518C12.5308 7.08439 12.4812 7.0724 12.436 7.05005Z" fill="#EA1D2C"/>
<path d="M9.20065 1.54077C9.23054 1.53152 9.32022 1.61192 9.3252 1.65959C9.33018 1.70726 9.27394 1.77414 9.21559 1.88727C9.13519 1.78268 9.05836 1.72575 9.06334 1.67381C9.06832 1.62187 9.14302 1.555 9.20065 1.54077Z" fill="#EA1D2C"/>
<path d="M3.10381 9.02844C3.18194 9.02362 3.26025 9.03471 3.33397 9.06103C3.40769 9.08736 3.47528 9.12835 3.53269 9.18156C3.5901 9.23478 3.6361 9.2991 3.66792 9.37062C3.69974 9.44214 3.71676 9.51936 3.71786 9.59763C3.71755 9.74932 3.65921 9.89514 3.55484 10.0052C3.45046 10.1153 3.3079 10.1812 3.15645 10.1896C3.07968 10.1918 3.00321 10.1788 2.9315 10.1513C2.85978 10.1238 2.79427 10.0825 2.7386 10.0296C2.68292 9.97667 2.6382 9.91329 2.6071 9.84308C2.57601 9.77286 2.55909 9.69718 2.55734 9.62041C2.55361 9.54549 2.56486 9.47056 2.59043 9.40004C2.616 9.32952 2.65541 9.26482 2.70629 9.2097C2.75717 9.15458 2.81852 9.11016 2.88677 9.07903C2.95502 9.04791 3.02883 9.03071 3.10381 9.02844Z" fill="#EA1D2C"/>
</svg>
